<svg width="123" height="99" viewBox="0 0 123 99" fill="none" xmlns="http://www.w3.org/2000/svg">
<path d="M119.816 79.8774H73.2606C73.1185 83.6812 70.4361 86.0218 66.9741 86.0218H55.2997C51.711 86.0218 48.9595 82.6673 49.0075 79.8774H3.07221C1.38249 79.8774 0 81.2599 0 82.9496V86.0218C0 92.7807 5.52997 98.3106 12.2888 98.3106H110.599C117.358 98.3106 122.888 92.7807 122.888 86.0218V82.9496C122.888 81.2599 121.506 79.8774 119.816 79.8774ZM110.599 9.21662C110.599 4.14748 106.452 0 101.383 0H21.5055C16.4363 0 12.2888 4.14748 12.2888 9.21662V73.733H110.599V9.21662ZM98.3106 61.4441H24.5777V12.2888H98.3106V61.4441Z" fill="#4EABE9"/>
</svg>
