<svg width="123" height="123" viewBox="0 0 123 123" fill="none" xmlns="http://www.w3.org/2000/svg">
<path d="M122.888 61.4441C122.888 95.3789 95.3789 122.888 61.4441 122.888C27.5094 122.888 0 95.3789 0 61.4441C0 27.5094 27.5094 0 61.4441 0C95.3789 0 122.888 27.5094 122.888 61.4441ZM54.3369 93.9783L99.9245 48.3907C101.473 46.8427 101.473 44.3327 99.9245 42.7847L94.3185 37.1787C92.7705 35.6304 90.2605 35.6304 88.7122 37.1787L51.5338 74.3568L34.1761 56.9991C32.6281 55.4511 30.118 55.4511 28.5698 56.9991L22.9638 62.6051C21.4158 64.1531 21.4158 66.6632 22.9638 68.2112L48.7307 93.9781C50.2789 95.5263 52.7887 95.5263 54.3369 93.9783Z" fill="#4EABE9"/>
</svg>
