<svg width="123" height="108" viewBox="0 0 123 108" fill="none" xmlns="http://www.w3.org/2000/svg">
<path d="M110.695 23.0416H19.2013C17.0796 23.0416 15.361 21.323 15.361 19.2013C15.361 17.0796 17.0796 15.361 19.2013 15.361H111.368C113.489 15.361 115.208 13.6425 115.208 11.5208C115.208 5.15795 110.05 0 103.687 0H15.361C6.87646 0 0 6.87647 0 15.361V92.1662C0 100.651 6.87646 107.527 15.361 107.527H110.695C117.421 107.527 122.888 102.36 122.888 96.0065V34.5623C122.888 28.2091 117.421 23.0416 110.695 23.0416ZM99.8467 72.9649C95.6057 72.9649 92.1662 69.5255 92.1662 65.2844C92.1662 61.0433 95.6057 57.6039 99.8467 57.6039C104.088 57.6039 107.527 61.0433 107.527 65.2844C107.527 69.5255 104.088 72.9649 99.8467 72.9649Z" fill="#4EABE9"/>
</svg>
